<svg xmlns="http://www.w3.org/2000/svg" width="291.773" height="195.324" viewBox="0 0 291.773 195.324">
  <g id="headerlogo" transform="translate(-187.141 736.776)">
    <path id="Path_1" data-name="Path 1" d="M308.96-736.388s-1,3.176-1,42.842c0,23.288-.167,42.341-.334,42.341s-13.705-13.371-30.084-29.694c-16.379-16.268-29.973-29.694-30.2-29.806-.223-.056-8.245,7.688-17.828,17.271L212.077-676l30.307,30.2c16.6,16.658,30.084,30.251,29.917,30.251-.167.056-19.053.056-42.062,0-22.953,0-42.118.223-42.508.446-.5.39-.669,5.738-.557,24.959l.167,24.457,44.291.334c41,.334,46.687.5,48.191,1.616a9.854,9.854,0,0,0,2.228.78,19.439,19.439,0,0,1,6.3,2.953,2.538,2.538,0,0,0,1.281.724c1.671,0,10.641,9.3,13.259,13.761l2.4,4.067h55.489l2.4-4.067a46.5,46.5,0,0,1,6.63-8.19c5.014-4.9,5.571-5.293,7.131-5.794.669-.223,1.226-.613,1.226-.891s.78-.613,1.671-.836c.947-.223,1.671-.557,1.671-.836,0-.223.947-.613,2.117-.836a7.89,7.89,0,0,0,2.618-.836c1.393-1.059,7.187-1.281,48.469-1.616l44.012-.334.167-24.457c.111-19.221-.056-24.569-.557-24.959-.39-.223-19.5-.446-42.508-.446-22.953.056-41.9.056-42.062,0-.167,0,13.315-13.594,29.917-30.251L453.978-676,436.6-693.434c-9.582-9.582-17.6-17.326-17.884-17.271-.223.111-13.817,13.538-30.2,29.806C372.137-664.575,358.6-651.2,358.432-651.2s-.334-19.053-.334-42.341c0-41.227,0-42.341-1.059-42.9C355.535-737.223,308.96-736.388,308.96-736.388Z" fill="#fff"/>
  </g>
</svg>
