<svg xmlns="http://www.w3.org/2000/svg" xmlns:xlink="http://www.w3.org/1999/xlink" width="1920" height="1080" viewBox="0 0 1920 1080">
  <defs>
    <clipPath id="clip-herobaslik">
      <rect width="1920" height="1080"/>
    </clipPath>
  </defs>
  <g id="herobaslik" clip-path="url(#clip-herobaslik)">
    <rect width="1920" height="1080"/>
    <g id="herobaslik-2" data-name="herobaslik">
      <text id="under_ground" data-name="under
ground" transform="translate(642 548)" fill="#fff" font-size="182" font-family="SpaceGrotesk-Bold, Space Grotesk" font-weight="700" letter-spacing="-0.05em"><tspan x="0" y="0">under</tspan><tspan x="0" y="110">ground</tspan></text>
      <g id="OtV05401" transform="translate(1057.86 1363.001)">
        <path id="Path_1" data-name="Path 1" d="M208.32-736.895c-.165.087-.174.552-.174,7.451,0,4.051-.029,7.362-.058,7.362s-2.383-2.325-5.231-5.163-5.208-5.163-5.25-5.182-1.434,1.337-3.1,3l-3.032,3.032,5.269,5.25c2.886,2.893,5.231,5.26,5.2,5.26s-3.312.009-7.313,0-7.323.039-7.391.077c-.088.068-.116,1-.1,4.34l.029,4.252,7.7.058c7.129.058,8.117.088,8.379.281a1.711,1.711,0,0,0,.388.135,3.38,3.38,0,0,1,1.094.514.441.441,0,0,0,.223.126,8.676,8.676,0,0,1,2.305,2.392l.417.707h9.648l.417-.707a8.088,8.088,0,0,1,1.152-1.424c.872-.852.969-.92,1.24-1.008.117-.039.213-.106.213-.155s.135-.106.289-.145.289-.1.289-.145.165-.106.368-.145a1.377,1.377,0,0,0,.455-.145c.242-.184,1.249-.223,8.427-.281l7.652-.058.029-4.252c.02-3.342-.009-4.271-.1-4.34-.068-.039-3.39-.077-7.391-.077s-7.284.009-7.313,0,2.315-2.363,5.2-5.26l5.269-5.25-3.017-3.036c-1.664-1.664-3.061-3.012-3.11-3s-2.4,2.354-5.25,5.182-5.2,5.163-5.231,5.163-.058-3.313-.058-7.362c0-7.168,0-7.362-.184-7.458C216.418-737.04,208.552-737.03,208.32-736.895Z" transform="translate(0 0)" fill="#fff"/>
      </g>
    </g>
  </g>
</svg>
