<svg xmlns="http://www.w3.org/2000/svg" width="549" height="396.961" viewBox="0 0 549 396.961">
  <g id="herobaslik" transform="translate(-686 -341.52)">
    <g id="OtV05401" transform="translate(665.489 1078.521)">
      <path id="Path_1" data-name="Path 1" d="M276.8-736.55c-.7.369-.738,2.337-.738,31.531,0,17.139-.123,31.162-.246,31.162s-10.087-9.841-22.142-21.855c-12.055-11.973-22.06-21.855-22.224-21.937-.164-.041-6.068,5.658-13.121,12.711L205.493-692.1,227.8-669.879c12.219,12.26,22.142,22.265,22.019,22.265-.123.041-14.023.041-30.957,0-16.893,0-31,.164-31.285.328-.369.287-.492,4.223-.41,18.369l.123,18,32.6.246c30.178.246,34.361.369,35.468,1.189a7.252,7.252,0,0,0,1.64.574,14.306,14.306,0,0,1,4.633,2.173,1.867,1.867,0,0,0,.943.533c1.23,0,7.832,6.848,9.759,10.128l1.763,2.993h40.839l1.763-2.993a34.22,34.22,0,0,1,4.879-6.027c3.69-3.608,4.1-3.9,5.248-4.264.492-.164.9-.451.9-.656s.574-.451,1.23-.615c.7-.164,1.23-.41,1.23-.615,0-.164.7-.451,1.558-.615a5.807,5.807,0,0,0,1.927-.615c1.025-.779,5.289-.943,35.673-1.189l32.393-.246.123-18c.082-14.146-.041-18.082-.41-18.369-.287-.164-14.351-.328-31.285-.328-16.893.041-30.834.041-30.957,0-.123,0,9.8-10,22.019-22.265L383.529-692.1l-12.793-12.834c-7.053-7.053-12.957-12.752-13.162-12.711-.164.082-10.169,9.964-22.224,21.937-12.055,12.014-22.019,21.855-22.142,21.855s-.246-14.023-.246-31.162c0-30.342,0-31.162-.779-31.572C311.077-737.165,277.782-737.124,276.8-736.55Z" fill="#fff"/>
    </g>
    <text id="space" transform="translate(686 683.48)" fill="#fff" font-size="189" font-family="SpaceGrotesk-SemiBold, Space Grotesk" font-weight="600"><tspan x="0" y="0">space</tspan></text>
  </g>
</svg>
