<svg xmlns="http://www.w3.org/2000/svg" xmlns:xlink="http://www.w3.org/1999/xlink" width="1920" height="1080" viewBox="0 0 1920 1080">
  <defs>
    <clipPath id="clip-herobaslik.svg">
      <rect width="1920" height="1080"/>
    </clipPath>
  </defs>
  <g id="herobaslik.svg" clip-path="url(#clip-herobaslik.svg)">
    <rect width="1920" height="1080" fill="#00fff6"/>
    <g id="Group_1" data-name="Group 1">
      <text id="Fires_and..." data-name="Fires and..." transform="translate(532 991)" fill="#fff" font-size="182" font-family="SpaceGrotesk-Bold, Space Grotesk" font-weight="700" letter-spacing="-0.05em"><tspan x="0" y="0">Fires and...</tspan></text>
      <g id="OtV05401" transform="translate(676.55 812.001)">
        <path id="Path_1" data-name="Path 1" d="M267.567-736.6c-.626.33-.662,2.1-.662,28.292,0,15.382-.11,27.954-.22,27.954s-9.048-8.828-19.862-19.6-19.777-19.6-19.936-19.678-5.444,5.076-11.77,11.4L203.6-696.719l20.008,19.936c10.96,10.987,19.862,19.972,19.752,19.972s-12.578.036-27.77,0-27.806.148-28.064.294c-.332.258-.442,3.788-.368,16.481l.11,16.146,29.24.22c27.07.22,30.822.332,31.816,1.066a6.515,6.515,0,0,0,1.472.514,12.83,12.83,0,0,1,4.156,1.95,1.674,1.674,0,0,0,.846.478c1.1,0,7.026,6.142,8.754,9.084l1.582,2.684h36.634l1.582-2.684a30.713,30.713,0,0,1,4.376-5.406c3.31-3.236,3.678-3.494,4.708-3.826.442-.148.81-.4.81-.588s.514-.4,1.1-.549,1.1-.368,1.1-.549.626-.4,1.4-.549a5.223,5.223,0,0,0,1.728-.549c.92-.7,4.744-.846,32-1.066l29.056-.22.11-16.146c.074-12.69-.036-16.22-.368-16.481-.258-.148-12.874-.294-28.064-.294s-27.66.036-27.77,0,8.79-8.974,19.752-19.972L363.3-696.711l-11.457-11.528c-6.318-6.318-11.622-11.438-11.811-11.4s-9.122,8.938-19.936,19.678-19.752,19.6-19.862,19.6-.22-12.581-.22-27.954c0-27.218,0-27.954-.7-28.32C298.315-737.149,268.449-737.111,267.567-736.6Z" transform="translate(0 0)" fill="#fff"/>
      </g>
    </g>
  </g>
</svg>
