<svg xmlns="http://www.w3.org/2000/svg" viewBox="0 32.34791946411133 237.37083435058594 99.86250305175781" data-asc="1.625" width="237.37083435058594" height="99.86250305175781"><defs/><g fill="#ffffff"><g transform="translate(0, 0)"><path d="M22.55 36.10Q23.15 36.75 23.63 36.63Q24.10 36.50 25.45 35.50Q27.55 33.90 31.15 33.40Q31.90 33.40 34.55 35.75Q40.60 41.40 36.90 48.70Q34.60 53.20 35.60 53.45Q35.70 53.45 35.85 53.35Q38.15 52.35 39.63 51.88Q41.10 51.40 42.03 51.38Q42.95 51.35 43.33 51.77Q43.70 52.20 43.70 53.10Q43.70 54.70 41.90 56.10Q40.10 57.50 36.95 58.25Q34.75 58.75 33.85 59.30Q32.95 59.85 32.15 61Q10.60 95.35 2 77.70Q0.95 75.35 0.47 71.97Q0 68.60 0.60 67.15Q1.75 64.30 3.30 55.90Q4.05 52.40 5.45 49.65Q6.90 46.45 6.90 46.10Q6.90 45.25 11.65 41.47Q16.40 37.70 18.70 36.60Q20.65 35.65 21.33 35.57Q22.00 35.50 22.55 36.10M20.80 47.30Q19.95 46.10 19.95 44.50Q19.95 42.75 19.38 42.70Q18.80 42.65 16.75 44.25Q10.80 48.95 9.25 52.60Q7.90 55.65 6.22 63.17Q4.55 70.70 4.90 72.15Q5.15 73.75 5.15 75.40Q5.15 76.75 6.20 77.85Q7.25 78.95 8.50 78.95Q11.45 78.95 17.30 73.20Q23.15 67.45 26.30 61.45L27.90 58.30L25.20 55.70Q22.40 52.95 22.00 50.75Q21.55 48.45 20.80 47.30M31.35 49.55Q32.65 46.80 33.08 44.23Q33.50 41.65 32.75 40.45Q32.35 39.90 30.58 39.90Q28.80 39.90 28.30 41.30Q28.05 42 27.63 42.42Q27.20 42.85 26.85 42.85Q26.00 42.85 25.80 44.77Q25.60 46.70 26.20 49.10Q26.80 51.50 27.80 52.70Q28.20 53.20 28.50 53.35Q28.80 53.50 29.23 53.13Q29.65 52.75 30.10 51.95Q30.55 51.15 31.35 49.55ZM66.83 74Q67.93 73.10 68.75 73.28Q69.58 73.45 69.58 74.85Q69.58 75.30 69.38 75.75Q69.18 76.20 68.93 76.53Q68.68 76.85 68.18 77.28Q67.68 77.70 67.40 77.90Q67.13 78.10 66.55 78.47Q65.97 78.85 65.83 78.95Q64.68 79.75 63.38 80.25Q62.43 80.70 59.90 81.20Q57.38 81.70 55.92 81.70Q54.73 81.70 52.58 80.88Q50.43 80.05 48.90 79.35Q47.38 78.65 47.38 78.80Q47.38 78.80 47.03 78.80Q46.68 78.80 46.25 78.75Q45.83 78.70 45.03 79.22Q44.23 79.75 43.38 80.85Q42.13 82.40 41.13 85.08Q40.13 87.75 39.73 88.45Q39.23 89.45 38.70 90.75Q38.18 92.05 37.68 92.95Q37.18 93.85 36.33 94.85Q35.58 95.75 35.15 95.95Q34.73 96.15 33.73 95.75Q32.52 95.30 32 93.42Q31.48 91.55 31.83 90.15Q32.02 89.30 33 87.88Q33.98 86.45 34.23 85.80Q34.52 85 34.88 83.40Q35.23 81.80 35.48 81.15Q35.83 80.10 36.77 78.17Q37.73 76.25 38.08 75.30Q38.58 73.90 38.80 71.85Q39.02 69.80 39.35 67.95Q39.68 66.10 40.52 64.65Q40.63 64.45 40.83 64.08Q41.02 63.70 41.20 63.38Q41.38 63.05 41.63 62.63Q41.88 62.20 42.10 61.88Q42.33 61.55 42.60 61.15Q42.88 60.75 43.15 60.45Q43.43 60.15 43.73 59.88Q44.03 59.60 44.35 59.40Q44.68 59.20 44.98 59.10Q46.78 58.60 47.58 59.77Q48.38 60.95 47.48 62.40Q46.18 64.55 46.93 64.40Q47.68 64.15 49.38 62.45Q51.38 60.45 53.13 59.40Q54.88 58.35 57.18 57.95Q59.38 57.55 59.48 57.40Q59.68 57.35 59.88 57.65Q60.08 57.95 60.28 58.50Q60.43 59.05 60.58 59.75Q60.68 60.50 60.78 61.25Q60.88 62 60.88 62.70Q60.83 69.65 58.88 71.75Q57.68 73 57.03 74.15Q56.83 74.60 56.55 74.75Q56.28 74.90 56.10 74.88Q55.92 74.85 55.58 74.95Q55.23 75.05 54.98 75.45Q54.28 76.20 53.48 76.20Q52.83 76.25 51.80 76.88Q50.78 77.50 50.78 77.90Q50.78 78.05 51.30 78.30Q51.83 78.55 52.58 78.78Q53.33 79 54.13 79.15Q54.92 79.30 55.48 79.30Q56.33 79.30 57.53 79.05Q57.98 78.85 58.63 78.63Q59.28 78.40 59.83 78.20Q60.38 78 60.73 77.80Q64.58 75.80 66.83 74M47.08 71.90Q47.18 72.85 47.88 73.72Q48.58 74.60 49.23 74.60Q50.38 74.60 52.78 72.53Q55.17 70.45 55.78 69.05Q56.42 67.45 56.50 65.55Q56.58 63.65 55.98 62.55Q55.38 61.50 54.80 61.67Q54.23 61.85 52.23 63.80Q50.33 65.50 48.70 68.10Q47.08 70.70 47.08 71.90ZM89.05 75.65Q90.15 74.75 90.98 74.92Q91.80 75.10 91.80 76.50Q91.85 76.95 91.63 77.40Q91.40 77.85 91.15 78.17Q90.90 78.50 90.43 78.90Q89.95 79.30 89.65 79.50Q89.35 79.70 88.78 80.08Q88.20 80.45 88.10 80.55Q86.90 81.35 85.65 81.90Q85.55 81.95 85.38 82.03Q85.20 82.10 85.00 82.17Q84.80 82.25 84.60 82.33Q84.40 82.40 84.28 82.45L84.15 82.50Q81.10 83.75 77.60 83.95Q74.00 84.15 72.35 83.30Q72.15 83.20 70.75 82.60Q69.35 82 68.75 81.55Q67.60 80.80 66.55 78.30Q64.60 73.80 64.60 70.35Q64.60 68.25 65.35 64.85Q65.40 64.65 65.53 64Q65.65 63.35 65.75 63.02Q65.85 62.70 66.00 62.13Q66.15 61.55 66.30 61.15Q66.45 60.75 66.65 60.33Q66.85 59.90 67.05 59.55Q68.10 58.10 68.75 57.45Q71.45 54.65 75.60 54.95Q79.90 55.30 80.25 57.80Q80.55 59.75 80.03 61.83Q79.50 63.90 78.73 65.25Q77.95 66.60 76.58 68.75Q75.20 70.90 74.60 72.05Q72.40 76.20 72.40 77Q72.40 77.65 73.65 78.85Q74.45 79.60 75.08 79.75Q75.70 79.90 77.35 79.60Q79.95 79.25 83.00 78.35Q84.15 77.95 86.35 77Q88.55 76.05 89.05 75.65M69.65 72.10Q70.10 72.10 72.15 68.20Q74.15 64.30 74.15 63.50Q74.15 62.55 73.13 62.27Q72.10 62 71.50 62.75Q71.00 63.35 70.50 64.55Q70.00 65.75 69.70 67Q69.45 68.25 69.25 69.40Q69.05 70.55 69.15 71.33Q69.25 72.10 69.65 72.10ZM86.03 74.35Q86.83 73 89.13 68.17Q91.43 63.35 93.08 61.40Q93.33 61.05 93.63 60.75Q94.23 60.10 95.28 59.77Q96.33 59.45 97.18 59.85Q97.48 60.05 97.60 60.90Q97.73 61.75 97.98 61.80Q98.33 61.85 99.68 60.90Q101.98 59.30 106.93 58.25Q108.93 57.75 109.53 57.85Q110.13 57.95 111.03 58.75Q112.18 59.90 112.23 61.55Q112.28 63.20 111.13 64.65Q110.28 65.90 108.93 69.60Q107.58 73.30 107.58 74.70Q107.58 75.70 108.25 76.88Q108.93 78.05 109.90 78.83Q110.88 79.60 111.68 79.60Q112.88 79.60 116.73 77.60Q120.58 75.60 122.78 73.80Q124.43 72.55 125.13 72.63Q125.83 72.70 125.83 74.10Q125.83 74.70 125.30 75.47Q124.78 76.25 123.93 77.10Q123.03 77.90 121.83 78.72Q120.63 79.55 119.38 80.05Q116.08 81.60 114.63 82.30Q112.13 83.45 110.20 82.95Q108.28 82.45 105.68 79.85Q103.58 77.75 103.20 76.97Q102.83 76.20 102.83 74Q102.83 70.80 103.98 67.35Q104.98 63.90 104.78 63.60Q104.48 63.30 100.73 66.83Q96.98 70.35 93.38 74.28Q89.78 78.20 89.78 78.80Q89.78 79.30 89.15 79.90Q88.53 80.50 87.63 80.88Q86.73 81.25 86.03 81.10Q84.88 80.95 84.43 79.30Q84.08 78.20 84.33 77.35Q84.58 76.50 86.03 74.35ZM169.10 71.90Q170.20 71 171.03 71.15Q171.85 71.30 171.90 72.75Q171.90 73.90 170.60 75.17Q169.30 76.45 168.05 76.90Q167.25 77.20 166.30 76.85Q165.35 76.50 164.80 76.05L164.25 75.55Q164.20 75.55 163.73 75.20Q163.25 74.85 162.60 74.38Q161.95 73.90 161.13 73.45Q160.30 73 159.60 72.83Q158.90 72.65 158.35 72.85Q157.65 73.20 156.93 74.10Q156.20 75 155.43 76.22Q154.65 77.45 154.30 77.85Q153.40 78.95 152.78 79.50Q152.15 80.05 151.25 80.50Q149.65 81.30 147.43 81.22Q145.20 81.15 143.35 80.30Q141.25 79.25 140.28 79.28Q139.30 79.30 138.80 80.30Q138.45 81 137.85 81.15Q137.25 81.30 135.25 81.10Q133.60 80.95 132.55 80.65Q129.05 79.65 127.23 77.55Q125.40 75.45 125.35 72.85Q125.30 70.25 126.30 67.53Q127.30 64.80 129.25 62.20Q130.20 60.90 131.15 60.75Q131.60 60.65 131.80 60.60Q132.15 60.55 132.70 60.45Q133.10 60.45 133.75 61.65Q134.25 63 133.40 65.45Q132.35 68.05 132.35 71.90Q132.35 74.60 132.50 75.22Q132.65 75.85 133.40 76Q134.35 76.05 136.10 74.35Q137.85 72.65 137.85 71.60Q137.85 70.85 139.15 69.95Q140.65 68.95 142.30 66.35Q144.05 63.50 145.40 63.20Q147.85 62.55 148.45 64.15Q149.05 65.75 147.35 68.25Q146.05 70.05 145.25 72.50Q144.45 74.95 144.90 75.55Q145.10 76.05 146.60 76.05Q148.00 76.05 150.75 73.13Q153.50 70.20 154.10 68.05Q154.60 65.90 155.65 64.20Q156.30 63.15 156.85 62.80Q157.40 62.45 158.50 62.45Q159.60 62.45 160.15 63.27Q160.70 64.10 160.80 65.17Q160.90 66.25 161.28 67.53Q161.65 68.80 162.35 69.45Q162.80 69.85 163.75 70.40Q166.55 72.15 168.15 72.45Q168.15 72.45 168.20 72.45Q168.85 72.10 169.10 71.90ZM199.43 75.15Q200.38 74.40 201.05 74.53Q201.73 74.65 201.73 75.85Q201.73 76.10 201.63 76.38Q201.53 76.65 201.40 76.88Q201.28 77.10 201.03 77.35Q200.78 77.60 200.58 77.80Q200.38 78 200.08 78.22Q199.78 78.45 199.58 78.58Q199.38 78.70 199.08 78.90Q198.78 79.10 198.63 79.20Q197.68 79.85 196.63 80.30Q196.53 80.35 195.43 80.90L195.18 81.20Q193.83 82.50 191.28 82.80Q189.68 83 188.80 82.83Q187.93 82.65 186.38 81.95Q184.08 80.85 183.33 80.15Q182.83 79.75 182.48 79.80Q182.13 79.85 181.18 80.60Q178.13 82.80 173.90 83.08Q169.68 83.35 168.38 81.40Q167.58 80.15 167.65 76.55Q167.73 72.95 168.58 71.40Q169.33 70.05 169.73 69.40Q170.18 68.75 170.58 68.20Q170.98 67.60 171.93 66.45Q175.08 62.55 176.88 61.10Q178.28 60 180.18 59.22Q182.08 58.45 184.15 58.20Q186.23 57.95 187.83 58.75Q189.78 59.75 190.23 62.17Q190.68 64.60 190.13 66.88Q189.58 69.15 188.58 71.15Q187.73 73.05 187.30 75.30Q186.88 77.55 187.33 78.25Q188.28 80.15 193.58 78.50Q193.78 78.45 193.98 78.45Q194.28 78.35 194.43 78.25Q197.63 76.60 199.43 75.15M184.33 65.75Q184.88 65.45 184.93 65.25Q184.98 65.05 184.68 64.75Q184.08 64.10 182.98 63.90Q181.88 63.70 180.83 64Q179.78 64.25 177.65 66Q175.53 67.75 174.78 69Q173.78 70.45 173.08 71.60Q172.23 72.80 171.93 75.10Q171.63 77.40 172.18 78.10Q172.68 78.70 174.38 78.70Q176.08 78.70 177.58 78.15Q179.03 77.45 179.73 76.05Q180.93 73.70 181.68 72.25Q182.98 70 182.98 69.20Q182.98 68.70 183.40 68.17Q183.83 67.65 183.63 67.05Q183.38 66.25 184.33 65.75ZM206.83 64.45Q205.18 66.45 203.98 68.20Q202.78 69.95 202.88 70.40Q202.88 71.20 204.28 74.05Q205.98 77.30 208.23 77.30Q208.68 77.30 209.15 77.20Q209.63 77.10 210.35 76.85Q211.08 76.60 211.28 76.55Q211.83 76.40 213.08 75.65Q214.63 74.70 216.03 73.60Q217.13 72.65 217.95 72.83Q218.78 73 218.83 74.40Q218.83 74.85 218.60 75.30Q218.38 75.75 218.13 76.08Q217.88 76.40 217.40 76.83Q216.93 77.25 216.63 77.45Q216.33 77.65 215.78 78.03Q215.23 78.40 215.08 78.50Q214.68 78.75 213.88 79.25Q213.08 79.75 212.68 80Q210.98 81.15 209.23 81.35Q207.53 81.60 206.68 81.38Q205.83 81.15 204.18 80.05Q202.08 78.60 200.78 76.90Q199.48 75.20 199.03 73.65Q198.58 72.10 198.58 70.05Q198.58 68 198.83 66.38Q199.08 64.75 199.45 62.38Q199.83 60 199.88 58.30Q199.93 57.65 200 56.95Q200.08 56.25 200.15 55.67Q200.23 55.10 200.38 54.30Q200.53 53.50 200.60 53.05Q200.68 52.60 200.93 51.72Q201.18 50.85 201.25 50.50Q201.33 50.15 201.60 49.17Q201.88 48.20 201.95 47.95Q202.03 47.70 202.35 46.63Q202.68 45.55 202.73 45.35Q203.28 43.50 203.68 42.65Q204.13 41.75 204.90 40.88Q205.68 40 206.30 39.45Q206.93 38.90 207.98 38.05Q208.38 37.75 209.35 36.95Q210.33 36.15 210.78 35.82Q211.23 35.50 212 34.92Q212.78 34.35 213.50 33.92Q214.23 33.50 215.08 33.10Q216.98 32.15 218.03 32.40Q218.83 32.60 219.38 33.27Q219.93 33.95 220.13 34.80Q220.28 35.40 220.35 36.02Q220.43 36.65 220.38 37.38Q220.33 38.10 220.30 38.60Q220.28 39.10 220.08 39.95Q219.88 40.80 219.80 41.17Q219.73 41.55 219.40 42.47Q219.08 43.40 219 43.65Q218.93 43.90 218.55 44.92Q218.18 45.95 218.13 46.10Q216.88 49.45 216.13 50.50Q215.63 51.20 213.23 55.75Q210.78 60.30 209.83 61.20Q208.48 62.45 206.83 64.45M206.18 52.30Q205.63 52.80 204.90 55.70Q204.18 58.60 204.63 59.05Q204.88 59.25 205.45 58.63Q206.03 58 206.85 56.67Q207.68 55.35 208.48 53.50Q210.13 50.20 210.13 49.90Q210.13 49.75 211.68 46.50Q213.23 43.30 213.23 42.60Q213.23 41.15 211.93 42.30Q211.08 42.95 210.28 44.35Q209.03 46.65 207.93 48.05Q206.93 49.35 206.93 50.50Q206.93 51.60 206.18 52.30ZM223.80 64.45Q222.15 66.45 220.95 68.20Q219.75 69.95 219.85 70.40Q219.85 71.20 221.25 74.05Q222.95 77.30 225.20 77.30Q225.65 77.30 226.13 77.20Q226.60 77.10 227.33 76.85Q228.05 76.60 228.25 76.55Q228.80 76.40 230.05 75.65Q231.60 74.70 233 73.60Q234.10 72.65 234.93 72.83Q235.75 73 235.80 74.40Q235.80 74.85 235.58 75.30Q235.35 75.75 235.10 76.08Q234.85 76.40 234.38 76.83Q233.90 77.25 233.60 77.45Q233.30 77.65 232.75 78.03Q232.20 78.40 232.05 78.50Q231.65 78.75 230.85 79.25Q230.05 79.75 229.65 80Q227.95 81.15 226.20 81.35Q224.50 81.60 223.65 81.38Q222.80 81.15 221.15 80.05Q219.05 78.60 217.75 76.90Q216.45 75.20 216 73.65Q215.55 72.10 215.55 70.05Q215.55 68 215.80 66.38Q216.05 64.75 216.43 62.38Q216.80 60 216.85 58.30Q216.90 57.65 216.97 56.95Q217.05 56.25 217.13 55.67Q217.20 55.10 217.35 54.30Q217.50 53.50 217.58 53.05Q217.65 52.60 217.90 51.72Q218.15 50.85 218.22 50.50Q218.30 50.15 218.58 49.17Q218.85 48.20 218.93 47.95Q219 47.70 219.33 46.63Q219.65 45.55 219.70 45.35Q220.25 43.50 220.65 42.65Q221.10 41.75 221.88 40.88Q222.65 40 223.28 39.45Q223.90 38.90 224.95 38.05Q225.35 37.75 226.33 36.95Q227.30 36.15 227.75 35.82Q228.20 35.50 228.97 34.92Q229.75 34.35 230.47 33.92Q231.20 33.50 232.05 33.10Q233.95 32.15 235 32.40Q235.80 32.60 236.35 33.27Q236.90 33.95 237.10 34.80Q237.25 35.40 237.33 36.02Q237.40 36.65 237.35 37.38Q237.30 38.10 237.28 38.60Q237.25 39.10 237.05 39.95Q236.85 40.80 236.78 41.17Q236.70 41.55 236.38 42.47Q236.05 43.40 235.98 43.65Q235.90 43.90 235.53 44.92Q235.15 45.95 235.10 46.10Q233.85 49.45 233.10 50.50Q232.60 51.20 230.20 55.75Q227.75 60.30 226.80 61.20Q225.45 62.45 223.80 64.45M223.15 52.30Q222.60 52.80 221.88 55.70Q221.15 58.60 221.60 59.05Q221.85 59.25 222.43 58.63Q223 58 223.83 56.67Q224.65 55.35 225.45 53.50Q227.10 50.20 227.10 49.90Q227.10 49.75 228.65 46.50Q230.20 43.30 230.20 42.60Q230.20 41.15 228.90 42.30Q228.05 42.95 227.25 44.35Q226 46.65 224.90 48.05Q223.90 49.35 223.90 50.50Q223.90 51.60 223.15 52.30Z"/></g><g transform="translate(0, 47.85)"><path d="M41.90 74.65Q43.00 73.70 43.83 73.88Q44.65 74.05 44.65 75.50Q44.65 75.90 44.45 76.35Q44.25 76.80 44.00 77.13Q43.75 77.45 43.25 77.88Q42.75 78.30 42.48 78.50Q42.20 78.70 41.63 79.08Q41.05 79.45 40.95 79.55Q39.75 80.35 38.50 80.90Q38.30 80.95 37.65 81.33Q37.00 81.70 36.33 82.05Q35.65 82.40 34.75 82.83Q33.85 83.25 33.15 83.45Q32.45 83.65 31.70 83.75Q30.95 83.85 30.65 83.55Q28.75 83.45 25.75 81.70Q21.65 79.35 21.15 77.15Q20.70 75.65 20.15 75.65Q19.65 75.65 14.60 79.80Q10.35 83.05 8.43 83.83Q6.50 84.60 4.70 83.55Q2.95 82.70 1.48 80.83Q0 78.95 0 77.60Q0 76 0.90 72.75Q1.80 69.50 2.30 69Q2.95 68.30 2.95 66.70Q2.95 65.80 3.83 64.20Q4.70 62.60 4.70 61.65Q4.70 60.35 5.30 59.95Q5.90 59.55 7.70 55.70Q9.50 51.85 10.20 49.30Q10.80 47.20 11.97 45.42Q13.15 43.65 13.65 43.95Q14.15 44.25 18.35 40.85Q21.65 38.10 23.80 36.88Q25.95 35.65 29.40 34.55Q32.40 33.65 33.15 33.70Q33.85 33.80 35.80 35.40Q37.15 36.50 37.58 37.25Q38.00 38 38.00 39.55Q38.00 41.95 35.65 47.55Q35.05 48.80 33.75 52.50Q32.60 56.20 31.40 58.15Q30.40 59.80 30 62.35Q29.65 64.60 29.05 65.90Q28.90 66.20 27.30 70.70Q26.35 73.20 26.33 74.05Q26.30 74.90 26.95 76.15Q27.95 78 29.25 78Q30.75 78.20 32.15 79.45Q32.25 79.50 32.30 79.53Q32.35 79.55 32.40 79.63Q32.45 79.70 32.50 79.70Q33 79.45 34.18 79.05Q35.35 78.65 35.80 78.40Q39.65 76.40 41.90 74.65M23.65 59.95Q25.35 57.30 26.20 54.75Q27.40 51.15 28.20 49.90Q29.05 48.70 29.05 47.35Q29.05 46.10 29.65 45.65Q30.05 45.40 31.40 43Q32.75 40.60 32.18 40.10Q31.60 39.60 29.35 40.15Q27.10 40.70 25.45 41.70Q23.85 42.75 21.70 45.15Q19.55 47.55 19.55 48.30Q19.55 48.85 16.90 51.97Q14.25 55.10 14.25 55.85Q14.25 56.60 12.20 59.50Q10.10 62.60 9.50 65.05Q8.70 67.90 8.25 68.65Q7.75 69.75 7.75 70.50Q7.75 71.35 6.75 73.20Q5.90 74.90 6.25 75.58Q6.60 76.25 8.35 76.25Q9.45 76.25 11.68 74.78Q13.90 73.30 14.90 71.80Q15.10 71.70 15.40 71.25Q15.80 70.70 16.25 70.10Q16.75 69.40 17.20 68.85Q21.95 62.60 23.65 59.95ZM73.13 73.15Q74.18 72.20 75 72.38Q75.83 72.55 75.88 73.95Q75.88 74.35 75.75 74.72Q75.63 75.10 75.35 75.42Q75.08 75.75 74.80 76.05Q74.53 76.35 74.13 76.65Q73.73 76.95 73.45 77.15Q73.18 77.35 72.73 77.63Q72.28 77.90 72.13 78.05Q70.93 78.85 69.68 79.35Q69.58 79.40 69.38 79.50Q69.28 79.75 68.98 79.90Q68.68 80.05 68.08 80.20Q66.93 80.85 64.68 81.10Q62.43 81.35 60.58 81.22Q58.73 81.10 58.18 80.80Q57.73 80.50 57.18 79.55Q56.63 78.60 56.23 77.65Q55.83 76.70 55.73 76.20Q55.38 74.75 55.48 73.10Q55.63 71.40 56.03 67.80L56.03 67.10Q56.03 66.85 55.85 66.72Q55.68 66.60 55.38 66.55Q55.08 66.55 54.58 66.55Q53.98 66.55 53.23 66.35Q52.48 66.15 51.75 65.97Q51.03 65.80 50.48 65.80Q50.53 65.80 50.13 67.38Q49.73 68.95 49.10 70.70Q48.48 72.45 47.98 72.75Q46.18 73.80 44.18 74.25Q41.58 74.85 46.53 62.90Q46.63 62.60 47.03 61.65Q47.43 60.70 47.58 60.33Q47.73 59.95 48.05 59.13Q48.38 58.30 48.53 57.77Q48.68 57.25 48.85 56.50Q49.03 55.75 49.10 55.08Q49.18 54.40 49.18 53.70Q49.18 52.90 50.20 50.85Q51.23 48.80 51.83 48.35Q52.63 47.90 54.00 48.02Q55.38 48.15 55.83 48.65Q56.43 49.40 55.83 54.45Q55.38 57.75 55.43 58.70Q55.48 59.70 55.98 60.30Q56.58 60.80 57.03 60.77Q57.48 60.75 58.73 60Q60.58 58.95 61.40 59Q62.23 59.05 62.93 60.15Q63.48 60.95 63.43 61.60Q63.38 62.25 62.68 64.10Q61.68 66.75 60.88 70.15Q60.28 72.85 60.50 74.15Q60.73 75.45 62.13 77.20Q62.73 78.05 63.08 78.15Q63.23 78.20 63.60 78.08Q63.98 77.95 64.40 77.78Q64.83 77.60 64.98 77.55Q66.53 77.15 67.03 76.90Q70.88 74.90 73.13 73.15ZM99.20 75.10Q100.30 74.20 101.10 74.35Q101.90 74.50 101.95 75.95Q101.95 76.30 101.83 76.67Q101.70 77.05 101.42 77.40Q101.15 77.75 100.90 78.03Q100.65 78.30 100.22 78.63Q99.80 78.95 99.53 79.13Q99.25 79.30 98.80 79.60Q98.35 79.90 98.20 80Q97 80.80 95.75 81.35Q94.95 81.70 93.05 82.33Q91.15 82.95 88.20 83.72Q85.25 84.50 82.45 84.33Q79.65 84.15 78.25 82.75Q77.70 82.20 77 81.15Q76.30 80.10 75.78 79.10Q75.25 78.10 75 77.45Q74.35 75.70 74.40 72.60Q74.85 63.15 82.50 56.40Q84.30 54.90 85.15 54.58Q86 54.25 88.35 54.25Q92.65 54.25 94.92 56.15Q97.20 58.05 96.65 61.15Q96.30 62.70 95.97 63.08Q95.65 63.45 94.50 63.60Q92.95 63.75 91.58 62.97Q90.20 62.20 90.50 61.30Q90.80 60.55 90.17 59.77Q89.55 59 88.65 59Q87 59 83.63 62.47Q80.25 65.95 80.25 67.70Q80.25 68.35 79.55 69.60Q78.80 70.70 78.85 73.40Q78.95 76.05 79.70 77.15Q80.90 78.95 83.72 79.63Q86.55 80.30 88.90 79.85Q90.15 79.65 91.60 79.05Q94.25 78 96.45 76.30Q98.15 75.05 98.80 75.35Q98.85 75.35 98.97 75.25Q99.10 75.15 99.20 75.10ZM131.68 73.60Q132.78 72.65 133.60 72.83Q134.43 73 134.43 74.40Q134.43 74.80 134.30 75.17Q134.18 75.55 133.93 75.90Q133.68 76.25 133.40 76.53Q133.13 76.80 132.70 77.10Q132.28 77.40 132.03 77.60Q131.78 77.80 131.32 78.10Q130.88 78.40 130.72 78.50Q130.68 78.50 130.57 78.55Q130.47 78.60 130.47 78.65Q130.32 78.75 130.07 78.92Q129.82 79.10 129.72 79.15Q128.03 80.35 126.67 80.80Q125.33 81.15 123.33 81.35Q118.22 81.90 115.72 79Q113.22 76.10 112.17 68.40Q111.88 65.95 111.53 65.95Q111.22 65.95 107.97 68.75Q106.13 70.45 105.33 71.45Q104.92 71.85 104.63 72.50Q104.33 73.15 104.03 74.05Q103.72 74.95 103.58 75.25Q103.42 75.60 102.88 76.90L102.13 78.75Q101.92 79.20 101.88 80.22Q101.83 81.25 101.50 81.85Q101.17 82.45 100.28 82.60Q98.53 82.85 97.28 81.05Q96.47 79.95 96.42 79.40Q96.38 78.85 96.97 77.35Q97.13 77.05 97.22 76.75Q97.33 76.50 97.55 75.83Q97.78 75.15 97.85 74.92Q97.92 74.70 98.13 74.13Q98.33 73.55 98.45 73.25Q98.58 72.95 98.78 72.45Q98.97 71.95 99.15 71.60Q99.33 71.25 99.55 70.80Q99.78 70.35 100.03 69.90Q100.97 68.20 101.45 64.67Q101.92 61.15 102.08 60.65Q102.92 57.10 105.42 50.50Q105.88 49.25 106.47 46.73Q107.08 44.20 107.67 42.02Q108.28 39.85 109.17 37.55Q110.08 35.25 111.60 33.65Q113.13 32.05 115.13 31.55Q116.83 31.15 117.90 31.72Q118.97 32.30 119.38 33.45Q119.78 34.60 119.80 36.17Q119.83 37.75 119.65 39Q119.47 40.25 119.17 41.40Q118.63 43.25 117.42 45.70Q116.22 48.10 115.78 49.15Q115.08 51.10 113.83 53.10Q113.22 53.95 112.05 55.92Q110.88 57.90 110.13 58.80Q109.08 60.20 107.83 61.55Q107.67 61.70 107.22 62.13Q106.78 62.55 106.45 62.92Q106.13 63.30 106.03 63.65Q105.97 63.80 106.10 64Q106.22 64.20 106.38 64.15Q106.47 64.15 106.63 64.05Q107.03 63.75 107.72 63.05Q108.42 62.35 109.05 61.95Q109.67 61.55 110.38 61.45Q110.78 61.40 111.17 61.35Q113.33 61.10 114.65 61.75Q115.97 62.40 116.88 64.10Q117.67 65.85 117.67 68.10Q117.67 70.10 118.33 72.80Q118.92 75.50 119.67 76.85Q120.13 77.65 120.67 77.80Q121.22 77.95 122.92 77.75Q124.97 77.50 126.28 77Q129.68 75.20 131.68 73.60M112.28 43.05Q112.17 43.25 111.97 43.63Q111.78 44 111.63 44.32Q111.47 44.65 111.33 44.95Q110.22 47.25 109.58 49.75Q109.33 50.70 108.97 51.67Q108.63 52.65 108.10 54Q107.58 55.35 107.38 55.85Q107.08 56.65 107.47 56.90Q107.67 57.05 108.03 56.70Q108.83 55.90 109.38 54.92Q109.92 53.95 110.45 52.65Q110.97 51.35 111.33 50.65Q112.78 48 113.78 44Q113.88 43.75 114.17 43.07Q114.47 42.40 114.67 41.88Q114.88 41.35 114.95 40.70Q115.03 40.05 114.67 39.85Q114.33 39.55 113.83 40.15Q113.42 40.55 112.78 42Q112.58 42.50 112.28 43.05M106.42 64.15ZM143.85 50.90Q142.45 51.25 141.10 49.90Q140.15 48.95 140.10 48.65Q140.05 48.35 140.80 47.75Q141.85 47 143.47 47Q145.10 47 145.70 47.75Q146.35 48.60 145.78 49.60Q145.20 50.60 143.85 50.90M152.75 74.85Q153.10 75.45 152.78 76Q152.45 76.55 150.95 77.80Q148.60 79.80 145.40 81.45Q143 82.65 140.43 82.42Q137.85 82.20 135.58 80.95Q133.30 79.70 131.65 77.70Q129.30 74.90 130.25 70.25Q130.35 69.90 130.65 67.85Q130.95 65.80 131.28 64.22Q131.60 62.65 132 62.15Q132.45 61.60 133.47 61.40Q134.50 61.20 135.60 61.38Q136.70 61.55 137.70 62.02Q138.70 62.50 139.08 63.30Q139.45 64.10 139.05 65.10Q137.90 67.50 137.90 68.45Q137.90 69.35 136.90 70.70Q136.05 71.70 135.88 73.13Q135.70 74.55 136.35 75Q136.90 75.20 136.90 76.25Q136.90 77.15 138.20 78.30Q139.10 79.15 139.63 79.25Q140.15 79.35 141.55 79Q143.60 78.25 146.80 75.95Q149.35 74.10 150.68 73.85Q152 73.60 152.75 74.85ZM181.53 72.35Q179.73 72.05 178.48 71.50Q177.98 71.30 176.40 70.05Q174.83 68.80 174.18 68.70Q173.38 68.65 172.70 68.95Q172.03 69.25 171.53 69.78Q171.03 70.30 170.50 71.05Q169.98 71.80 169.63 72.50Q169.28 73.20 168.85 74Q168.43 74.80 168.08 75.30Q167.58 76 165.85 77.20Q164.13 78.40 162.48 79.42Q160.83 80.45 160.73 80.55Q160.08 81.05 158.15 81.22Q156.23 81.40 154.28 80.97Q152.33 80.55 151.78 79.60Q151.53 79.20 151.35 78.22Q151.18 77.25 151.10 76.38Q151.03 75.50 150.93 74.30Q150.83 73.10 150.83 72.70Q150.53 70.25 151.28 68.80Q151.53 68.40 151.90 65.80Q152.28 63.20 152.93 60.08Q153.58 56.95 154.48 55.35Q156.53 51.90 159.83 55.65Q160.63 56.55 160.43 58.90Q160.28 61.25 159.23 63.55Q158.63 64.95 157.73 67.75Q156.78 70.50 156.48 71.25Q155.43 74 156.58 75.50Q156.83 75.85 157.53 75.70Q158.23 75.55 159.05 75.13Q159.88 74.70 160.55 74.22Q161.23 73.75 161.53 73.40Q162.58 72.25 164.45 68.58Q166.33 64.90 166.63 63.35Q167.03 61.70 168.25 60.17Q169.48 58.65 170.98 57.75Q172.48 56.85 174.08 57.15Q175.68 57.45 176.68 59.25Q177.13 60.10 177.50 62.40Q177.88 64.70 178.88 65.85Q179.83 66.95 180.90 67.40Q181.98 67.85 183.55 68.08Q185.13 68.30 186.03 68.60Q187.08 69 187.70 70Q188.33 71 187.78 71.85Q187.08 73 184.58 72.75Q182.58 72.55 181.53 72.35ZM207.35 75.65Q208.45 74.75 209.28 74.92Q210.10 75.10 210.10 76.50Q210.15 76.95 209.93 77.40Q209.70 77.85 209.45 78.17Q209.20 78.50 208.73 78.90Q208.25 79.30 207.95 79.50Q207.65 79.70 207.08 80.08Q206.50 80.45 206.40 80.55Q205.20 81.35 203.95 81.90Q203.85 81.95 203.68 82.03Q203.50 82.10 203.30 82.17Q203.10 82.25 202.90 82.33Q202.70 82.40 202.58 82.45L202.45 82.50Q199.40 83.75 195.90 83.95Q192.30 84.15 190.65 83.30Q190.45 83.20 189.05 82.60Q187.65 82 187.05 81.55Q185.90 80.80 184.85 78.30Q182.90 73.80 182.90 70.35Q182.90 68.25 183.65 64.85Q183.70 64.65 183.83 64Q183.95 63.35 184.05 63.02Q184.15 62.70 184.30 62.13Q184.45 61.55 184.60 61.15Q184.75 60.75 184.95 60.33Q185.15 59.90 185.35 59.55Q186.40 58.10 187.05 57.45Q189.75 54.65 193.90 54.95Q198.20 55.30 198.55 57.80Q198.85 59.75 198.33 61.83Q197.80 63.90 197.03 65.25Q196.25 66.60 194.88 68.75Q193.50 70.90 192.90 72.05Q190.70 76.20 190.70 77Q190.70 77.65 191.95 78.85Q192.75 79.60 193.38 79.75Q194.00 79.90 195.65 79.60Q198.25 79.25 201.30 78.35Q202.45 77.95 204.65 77Q206.85 76.05 207.35 75.65M187.95 72.10Q188.40 72.10 190.45 68.20Q192.45 64.30 192.45 63.50Q192.45 62.55 191.43 62.27Q190.40 62 189.80 62.75Q189.30 63.35 188.80 64.55Q188.30 65.75 188.00 67Q187.75 68.25 187.55 69.40Q187.35 70.55 187.45 71.33Q187.55 72.10 187.95 72.10Z"/></g></g></svg>