<svg xmlns="http://www.w3.org/2000/svg" xmlns:xlink="http://www.w3.org/1999/xlink" width="429.659" height="262.36" viewBox="0 0 429.659 262.36">
  <defs>
    <clipPath id="clip-path">
      <rect y="25" width="234.495" height="262.36" fill="none"/>
    </clipPath>
  </defs>
  <g id="playerlogo" transform="translate(-344.217 -409.32)" style="mix-blend-mode: difference;isolation: isolate">
    <g id="OtV05401" transform="translate(1081.219 857.819) rotate(-90)">
      <path id="Path_1" data-name="Path 1" d="M296.261-736.452c-.848.449-.9,2.845-.9,38.376,0,20.86-.15,37.927-.3,37.927s-12.276-11.977-26.948-26.6c-14.672-14.572-26.848-26.6-27.048-26.7-.2-.05-7.386,6.887-15.969,15.47l-15.62,15.62,27.148,27.048c14.871,14.921,26.948,27.1,26.8,27.1-.15.05-17.067.05-37.678,0-20.561,0-37.728.2-38.077.4-.449.349-.6,5.14-.5,22.357l.15,21.908,39.674.3c36.729.3,41.82.449,43.167,1.447a8.825,8.825,0,0,0,2,.7,17.41,17.41,0,0,1,5.639,2.645,2.273,2.273,0,0,0,1.148.649c1.5,0,9.532,8.334,11.877,12.326l2.146,3.643h49.7l2.146-3.643a41.655,41.655,0,0,1,5.939-7.336c4.491-4.392,4.99-4.741,6.388-5.19.6-.2,1.1-.549,1.1-.8s.7-.549,1.5-.749c.848-.2,1.5-.5,1.5-.749,0-.2.848-.549,1.9-.749a7.069,7.069,0,0,0,2.345-.749c1.248-.948,6.438-1.148,43.417-1.447l39.424-.3.15-21.908c.1-17.217-.05-22.008-.5-22.357-.349-.2-17.466-.4-38.077-.4-20.561.05-37.528.05-37.678,0-.15,0,11.927-12.177,26.8-27.1l27.148-27.048-15.57-15.62c-8.584-8.584-15.77-15.52-16.019-15.47-.2.1-12.376,12.127-27.048,26.7-14.672,14.622-26.8,26.6-26.948,26.6s-.3-17.067-.3-37.927c0-36.929,0-37.927-.948-38.426C337.981-737.2,297.458-737.15,296.261-736.452Z" fill="#fff"/>
    </g>
    <g id="Scroll_Group_1" data-name="Scroll Group 1" transform="translate(539.382 384.32)" clip-path="url(#clip-path)" style="isolation: isolate">
      <path id="Polygon_1" data-name="Polygon 1" d="M131.52,36.392a29,29,0,0,1,48.321,0L281.458,189.455c12.8,19.276-1.023,45.04-24.16,45.04H54.062c-23.137,0-36.957-25.764-24.16-45.04Z" transform="translate(234.495) rotate(90)" fill="#fff"/>
    </g>
  </g>
</svg>
